<?xml version="1.0" encoding="utf-8"?>
<!-- Generator: Adobe Illustrator 24.3.0, SVG Export Plug-In . SVG Version: 6.00 Build 0)  -->
<svg version="1.1" id="Layer_1" xmlns="http://www.w3.org/2000/svg" xmlns:xlink="http://www.w3.org/1999/xlink" x="0px" y="0px"
	 viewBox="0 0 466 244" style="enable-background:new 0 0 466 244;" xml:space="preserve">
<style type="text/css">
	.st0{fill:#F2F2F2;stroke:#1D1D1B;stroke-miterlimit:10;}
	.st1{fill:#FFFFFF;stroke:#1D1D1B;stroke-miterlimit:10;}
	.st2{fill:#EDEDED;stroke:#1D1D1B;stroke-miterlimit:10;}
	.st3{fill:#D1D1D1;}
	.st4{fill:#C1C1C1;stroke:#1D1D1B;stroke-miterlimit:10;}
	.st5{fill:none;stroke:#1D1D1B;stroke-miterlimit:10;}
	.st6{fill:#A4A4A4;stroke:#1D1D1B;stroke-miterlimit:10;}
	.st7{fill:#D0D0D0;stroke:#1D1D1B;stroke-miterlimit:10;}
	.st8{fill:#C1C1C1;}
	.st9{opacity:0.6;}
	.st10{opacity:0.5;fill:#FFFFFF;enable-background:new    ;}
	.st11{fill:#C4C4C4;}
</style>
<path class="st0" d="M455.4,142.6H10.9V224h444.5V142.6z"/>
<path class="st1" d="M438.2,153.1h-410V224h410V153.1z"/>
<path class="st2" d="M163.1,153.1H33.5V224h129.6V153.1z"/>
<path class="st1" d="M33.5,153.1h-5.3V224h5.3V153.1z"/>
<path class="st2" d="M298,153.1H168.4V224H298V153.1z"/>
<path class="st2" d="M432.9,153.1H303.3V224h129.6V153.1z"/>
<path class="st1" d="M438.2,153.1h-5.3V224h5.3V153.1z"/>
<g>
	<path class="st3" d="M308.2,153.7h-5.3V224h5.3V153.7z"/>
</g>
<path class="st0" d="M462,224H4.4v7.3H462V224z"/>
<path class="st4" d="M437.2,11.5c0-5.8-98.9-10.5-204-10.5s-204,4.7-204,10.5c0,0.1,0.1,0.2,0.1,0.3l13.6,40h380.6l13.6-40
	C437.1,11.7,437.2,11.6,437.2,11.5z"/>
<path class="st5" d="M36.1,31.8c0-6,95.5-10.9,197.1-10.9c101.5,0,197.1,4.9,197.1,10.9"/>
<path class="st6" d="M423.5,51.8H42.9v33.5h380.6V51.8z"/>
<path class="st5" d="M69.2,85.3V51.8"/>
<path class="st5" d="M102,51.8v33.5"/>
<path class="st5" d="M134.8,51.8v33.5"/>
<path class="st5" d="M167.6,51.8v33.5"/>
<g>
	<path class="st3" d="M173.3,153.7H168V224h5.3V153.7z"/>
</g>
<path class="st5" d="M200.4,51.8v33.5"/>
<path class="st5" d="M233.2,51.8v33.5"/>
<path class="st5" d="M266,51.8v33.5"/>
<path class="st5" d="M298.8,51.8v33.5"/>
<path class="st5" d="M331.5,51.8v33.5"/>
<path class="st5" d="M364.3,51.8v33.5"/>
<path class="st5" d="M397.1,51.8v33.5"/>
<path class="st5" d="M54.8,6.6l14.4,45.3"/>
<path class="st5" d="M91,4.2l11,47.7"/>
<path class="st5" d="M134.8,51.8l-5.7-49.2"/>
<path class="st5" d="M167.6,51.8l-3.6-50.1"/>
<path class="st5" d="M410.8,6.6l-13.7,45.3"/>
<path class="st5" d="M374.6,4.2l-10.2,47.7"/>
<path class="st5" d="M331.5,51.8l5-49.2"/>
<path class="st5" d="M298.8,51.8l2.8-50.1"/>
<path class="st5" d="M200.4,51.8l-1.5-50.6"/>
<path class="st5" d="M233.2,51.8V1.1"/>
<path class="st5" d="M266,51.8V1.2"/>
<path class="st0" d="M465.3,85.3H1v42.4h464.3V85.3z"/>
<path class="st7" d="M465.3,127.7H1v4.8h464.3V127.7z"/>
<path class="st7" d="M465.3,132.5H1v5h464.3V132.5z"/>
<path class="st4" d="M462,137.5H4.4v5H462V137.5z"/>
<g>
	<rect x="33.9" y="153.7" class="st3" width="398.4" height="15.3"/>
</g>
<g>
	<rect x="33.9" y="153.7" class="st8" width="398.4" height="6.7"/>
</g>
<g>
	<rect x="118" y="85.8" class="st3" width="17" height="41.3"/>
</g>
<g>
	<rect x="332" y="85.8" class="st3" width="17" height="41.3"/>
</g>
<g class="st9">
	<path class="st10" d="M207.3,224L171,155h27.5l35.5,69H207.3z"/>
	<path class="st10" d="M239.3,224L203,155h12.5l35.5,69H239.3z"/>
</g>
<g class="st9">
	<path class="st10" d="M120.3,224L84,155h27.5l35.5,69H120.3z"/>
	<path class="st10" d="M152.3,224L116,155h12.5l35.5,69H152.3z"/>
</g>
<g class="st9">
	<path class="st10" d="M343.3,224L307,155h27.5l35.5,69H343.3z"/>
	<path class="st10" d="M375.3,224L339,155h12.5l35.5,69H375.3z"/>
</g>
<path class="st0" d="M90.4,81.2c-14,0-27.2,1.8-27.2,4.1v146h54.4v-146C117.6,83.1,104.4,81.2,90.4,81.2z"/>
<path class="st5" d="M71.9,82.8v148.4"/>
<path class="st5" d="M90.4,81.2v150"/>
<path class="st5" d="M108.9,82.4v148.8"/>
<path class="st4" d="M90.4,123.8c-14,0-27.2,1.8-27.2,4.1v14.7h54.4v-14.7C117.6,125.7,104.4,123.8,90.4,123.8z"/>
<path class="st4" d="M117.6,219.1H63.2v12.1h54.4V219.1z"/>
<path class="st0" d="M376,81.2c-14,0-27.2,1.8-27.2,4.1v146h54.4v-146C403.2,83.1,390,81.2,376,81.2z"/>
<path class="st5" d="M357.5,82.8v148.4"/>
<path class="st5" d="M376,81.2v150"/>
<path class="st5" d="M394.4,82.4v148.8"/>
<path class="st4" d="M376,123.8c-14,0-27.2,1.8-27.2,4.1v14.7h54.4v-14.7C403.2,125.7,390,123.8,376,123.8z"/>
<path class="st4" d="M403.2,219.1h-54.4v12.1h54.4V219.1z"/>
<g>
	<path class="st11" d="M462,232H4v12h458V232z"/>
</g>
<path class="st1" d="M168.4,153.1h-5.3V224h5.3V153.1z"/>
<path class="st1" d="M303.3,153.1H298V224h5.3V153.1z"/>
</svg>
