<svg id="Layer_1" data-name="Layer 1" xmlns="http://www.w3.org/2000/svg" viewBox="0 0 70 70"><defs><style>.cls-1{fill:#fff;}.cls-2{fill:none;}.cls-2,.cls-3{stroke:#000;stroke-linecap:round;stroke-linejoin:round;stroke-width:0.75px;}</style></defs><path class="cls-1" d="M14.07,35.47,15,19.36a2.75,2.75,0,0,1,.87-1.74A43.61,43.61,0,0,0,19.73,12c.44-.87,5.23-3,7.4-3.48a29.07,29.07,0,0,1,6.53,0c4.21.73,12.8,2.18,13.49,2.18s2.9,1.45,3.92,2.17l2.61,3.92,2.61,7L55.42,35.9c2.44-1,4.21-.72,4.79-.43,3.13,2.43-.73,9.72-3.05,13.05-.69,3.14-2.32,3.34-3,3-.7,1.74-2.33,6.53-3,8.7-3.48,5.66-11.32,5.66-15.67,6.1s-8.27-.87-13.06-3.05c-3.83-1.74-5.65-8.56-6.09-11.75a3.11,3.11,0,0,1-3.05-3.48l-1.3-2.18c-1.45-2-4.09-6.7-3.05-9.14S12.77,34.89,14.07,35.47Z"/><path class="cls-2" d="M16,31.33l-.49,9.85"/><path class="cls-2" d="M54.2,31.33l1.06,9.06"/><path d="M33.32,44.06a.87.87,0,0,1-.09.36.86.86,0,0,1-.23.3.92.92,0,0,1-.32.18,1,1,0,0,1-.37.05,1,1,0,0,1-.38,0,1,1,0,0,1-.34-.18.87.87,0,0,1-.23-.31.85.85,0,0,1-.09-.38.81.81,0,0,1,.09-.37.87.87,0,0,1,.23-.31,1,1,0,0,1,.34-.18,1,1,0,0,1,.38,0,.88.88,0,0,1,.69.23.92.92,0,0,1,.23.29A1,1,0,0,1,33.32,44.06Z"/><path class="cls-2" d="M31.39,30.79a6.32,6.32,0,0,1,1.31,3.36"/><path class="cls-2" d="M38.83,30.79a6.42,6.42,0,0,0-1.32,3.36"/><path class="cls-2" d="M48,33.24s-4.37-1.91-7.73,0"/><path d="M49.06,29.87c-.81-.33-2.48-.59-5.1-1.26-1.14-.29-5.57-1.41-6.07-1.55l.55-2c1.33.38,5,1.37,5.82,1.51A29.63,29.63,0,0,1,48,27.91Z"/><path class="cls-2" d="M22.23,33.63s4.13-2.3,7.73,0"/><path class="cls-3" d="M27.14,33.84a1.13,1.13,0,0,1-.18.59,1.07,1.07,0,0,1-.48.39,1,1,0,0,1-.62.06,1.06,1.06,0,0,1-.84-.83,1.06,1.06,0,0,1,1.05-1.28,1.06,1.06,0,0,1,.75.31A1.07,1.07,0,0,1,27.14,33.84Z"/><path class="cls-3" d="M44.57,33.84a1.13,1.13,0,0,1-.18.59,1.07,1.07,0,0,1-.48.39,1,1,0,0,1-.62.06,1.06,1.06,0,0,1-.84-.83,1.06,1.06,0,0,1,1-1.28,1.06,1.06,0,0,1,.75.31A1.07,1.07,0,0,1,44.57,33.84Z"/><path d="M20.26,30.34,21.33,28A12,12,0,0,1,26,26.6c1.12-.17,5.83-1.51,5.83-1.51l.26,1.76a16.84,16.84,0,0,1-5.79,1.76A24.68,24.68,0,0,0,20.26,30.34Z"/><path class="cls-2" d="M28.55,52.92a18.34,18.34,0,0,1,13.13,0"/><path class="cls-2" d="M58.57,37.71c-2.25,1-3.21,6.93-3.21,6.93"/><path class="cls-2" d="M30.12,42s-2.52,2.58.73,4.28"/><path d="M36.89,44.06a1.26,1.26,0,0,0,.1.38,1,1,0,0,0,.25.3,1,1,0,0,0,.34.18A.81.81,0,0,0,38,45a1,1,0,0,0,.39,0,1,1,0,0,0,.33-.18,1,1,0,0,0,.24-.31,1,1,0,0,0,.08-.38,1,1,0,0,0-.08-.37,1,1,0,0,0-.24-.31,1,1,0,0,0-.33-.18,1,1,0,0,0-.39,0,.81.81,0,0,0-.38,0,.86.86,0,0,0-.34.18.91.91,0,0,0-.25.3A1.2,1.2,0,0,0,36.89,44.06Z"/><path class="cls-2" d="M40.11,42s2.51,2.58-1.18,4.28"/><path class="cls-2" d="M35.11,22.85v3.91"/><path class="cls-2" d="M29.28,43.86,25.91,54.64"/><path class="cls-2" d="M40.92,43.86,44.3,54.64"/><path class="cls-2" d="M32.71,36.23v2.14a2.14,2.14,0,0,1-.57,1.44l-1.29,1.35"/><path class="cls-2" d="M33.86,54.38h3"/><path class="cls-2" d="M55.35,43.07v3.14"/><path class="cls-2" d="M11.65,37.71c2.32,1,3.21,6.93,3.21,6.93"/><path class="cls-2" d="M14.87,43.07v3.14"/><path class="cls-2" d="M35.11,66.19s-12.46.9-16.54-7.09a37.8,37.8,0,0,1-2.29-7.48c-1.66.37-2.93-1.54-3.06-2.68s-2-3.57-3.31-6.12S8,35.17,11.05,35.05s4.42,3.66,4.42,3.66"/><path class="cls-2" d="M35.11,66.19s12.46.9,16.54-7.09a40.66,40.66,0,0,0,2.29-7.48c1.66.37,2.93-1.54,3.06-2.68s2-3.57,3.31-6.12,1.91-7.65-1.15-7.77-4.07,3.32-4.07,3.32"/><path d="M56.32,36.23s3.79-10.52,2.9-14.72-7.65-8.66-7.65-8.66-.25-4-5.6-6.63-9.91-3.7-17.55-1.4S18,9.28,15.94,10.72s-7.22,9.2-5.53,16.82,2.64,8,2.64,8a8.82,8.82,0,0,1,2,2.13l1-6.41.76-8.47s-4-7.08,9.44-11.28c0,0,7.48-3.82,23.75,2.44,0,0,5.35,3.57,4.28,17.82L55,37.34"/><path class="cls-2" d="M56.32,36.23s3.79-10.52,2.9-14.72-7.65-8.66-7.65-8.66-.25-4-5.6-6.63-9.91-3.7-17.55-1.4S18,9.28,15.94,10.72s-7.22,9.2-5.53,16.82,2.64,8,2.64,8a8.82,8.82,0,0,1,2,2.13l1-6.41.76-8.47s-4-7.08,9.44-11.28c0,0,7.48-3.82,23.75,2.44,0,0,5.35,3.57,4.28,17.82L55,37.34"/><path class="cls-2" d="M16.28,51.59l-.54-2.34"/><path class="cls-2" d="M53.94,51.59l.46-2.34"/><path class="cls-2" d="M12.51,42.05l.74,2.9"/><path class="cls-2" d="M57.71,42.05,57,45"/></svg>