<svg id="Layer_1" data-name="Layer 1" xmlns="http://www.w3.org/2000/svg" viewBox="0 0 70 70"><defs><style>.cls-1{fill:#fff;}.cls-2,.cls-3{fill:none;}.cls-2,.cls-3,.cls-4{stroke:#000;stroke-linecap:round;stroke-miterlimit:10;}.cls-2,.cls-4{stroke-width:0.75px;}.cls-3{stroke-width:0.5px;}</style></defs><path class="cls-1" d="M15.92,36.47V29.94L19,16c2.9-.72,8.79-2.17,9.14-2.17s7.11-1.16,10.45-1.74l14.36,6.09,3.48,17c4.88-1.39,4.64,3.78,3.92,6.53a44.68,44.68,0,0,0-2.61,5.22c-1.4,3.14-2.9,3.92-3.48,3.92,0,2.79-2,6.1-3,7.4-3.19,2.32-11.06,7-17,7-7.39,0-7.83-3.48-13-5.65C17,57.8,15.92,53,15.92,50.83a2.31,2.31,0,0,1-2.62-2.17L11.13,44.3c-1.16-2.17-3-7-.87-8.7S14.9,35.45,15.92,36.47Z"/><path class="cls-2" d="M16,37v5.56"/><path class="cls-2" d="M16,50.74V48.06"/><path class="cls-3" d="M16,40.82S13.7,35,11.05,37"/><path class="cls-3" d="M13.53,39.73s-1.44,3.75,1.56,5.56"/><path class="cls-2" d="M30.73,47.58a2.83,2.83,0,0,1,1.07-.21,2.8,2.8,0,0,1,1.07.21,4.42,4.42,0,0,0,2.14.48"/><path class="cls-2" d="M39.31,47.58a2.84,2.84,0,0,0-1.07-.22,2.81,2.81,0,0,0-1.07.22,4.31,4.31,0,0,1-2.14.48"/><path class="cls-3" d="M29.33,48.06s-3-2.13,1.36-5.07"/><path class="cls-3" d="M29.56,43.92s-5.62,6-5.62,8.26"/><path class="cls-2" d="M23.09,36.53s4.28-4.66,7.13-.92"/><path class="cls-4" d="M28.07,35a.93.93,0,0,1-1.58.66.91.91,0,0,1-.28-.66,1,1,0,0,1,.32-.57,1,1,0,0,1,1.23,0A.93.93,0,0,1,28.07,35Z"/><path class="cls-2" d="M30.22,31.38l-.66-1A18.65,18.65,0,0,0,22,32.11"/><path class="cls-3" d="M27.2,32s-5.92-.1-7.07,1.87a5.1,5.1,0,0,0-.44,2.24A5,5,0,0,0,21.82,40a5,5,0,0,0,2.12.84c4,.51,7.83,0,8.73-2.86S33.16,31.7,27.2,32Z"/><path class="cls-3" d="M42.89,32s5.92-.1,7.07,1.87.16,6.49-3.81,7-7.84,0-8.74-2.86S36.88,31.7,42.89,32Z"/><path class="cls-2" d="M29.59,53a67.89,67.89,0,0,0,10.86,0"/><path class="cls-3" d="M40,52.29a5.69,5.69,0,0,1,2,3.38"/><path class="cls-3" d="M30.06,52.29a5.62,5.62,0,0,0-1.95,3.38"/><path class="cls-2" d="M19.83,35H15.11"/><path class="cls-2" d="M54,37a4.37,4.37,0,0,1,1.83-1.66,4.31,4.31,0,0,1,2.45-.4c2.76.49,3,4.84,1.26,8.34s-2.19,4.12-2.77,5.56A2.64,2.64,0,0,1,54,50.73s0,5.8-4.21,8.22S41.07,65.24,35,65.24,24.44,61.37,20.22,59,16,50.73,16,50.73c-1.07.24-2.19-.48-2.77-1.94s-1.07-2-2.77-5.56S9,35.38,11.74,34.89a4.31,4.31,0,0,1,2.45.4A4.37,4.37,0,0,1,16,37s1.27-13.31,3.47-16.68S23.41,17.06,25.9,18s9-2.55,11.76-3.88,7.39-.49,9,2.78,5.77,2.78,5.77,2.78-2,2.66-1.15,8.46A24.31,24.31,0,0,0,54,37Z"/><path class="cls-2" d="M54,37v5.56"/><path class="cls-2" d="M54,50.74V48.06"/><path class="cls-3" d="M54,40.82S56.34,35,59,37"/><path class="cls-3" d="M56.51,39.73S58,43.48,55,45.29"/><path class="cls-3" d="M40.66,48.06s3-2.13-1.35-5.07"/><path class="cls-3" d="M40.48,43.92s5.62,6,5.62,8.26"/><path class="cls-2" d="M47,36.53s-4.28-4.66-7.13-.92"/><path class="cls-4" d="M42,35a.89.89,0,0,0,.3.6.94.94,0,0,0,.63.24.92.92,0,0,0,.63-.24,1,1,0,0,0,.31-.6,1,1,0,0,0-.31-.6,1,1,0,0,0-.63-.24,1,1,0,0,0-.63.24A.94.94,0,0,0,42,35Z"/><path class="cls-2" d="M39.82,31.38l.66-1A18.65,18.65,0,0,1,48,32.11"/><path class="cls-2" d="M50.21,35h4.72"/><path class="cls-2" d="M32.88,35.72a5.21,5.21,0,0,1,4.28,0"/><path class="cls-4" d="M14.14,35.24A5,5,0,0,1,16,37s1.27-13.31,3.47-16.68S23.4,17.06,25.89,18s9-2.55,11.76-3.88,7.39-.49,9,2.78,5.77,2.78,5.77,2.78-2,2.66-1.16,8.46A24.44,24.44,0,0,0,54,37a4.92,4.92,0,0,1,2.14-1.82c5.94-10.68-1.22-13.45-1.2-17.93,0-3.55-6.55-13.06-20.31-12.41S16.16,9.46,12.16,18s2,17.26,2,17.26Z"/></svg>