<svg id="Layer_1" data-name="Layer 1" xmlns="http://www.w3.org/2000/svg" viewBox="0 0 70 70"><defs><style>.cls-1{fill:#fff;}.cls-2,.cls-3{fill:none;}.cls-2,.cls-3,.cls-4{stroke:#000;stroke-linecap:round;stroke-linejoin:round;}.cls-2,.cls-4{stroke-width:0.75px;}.cls-3{stroke-width:0.5px;}</style></defs><path class="cls-1" d="M16.2,35l1.3-11.75c1.45-2.47,4.44-7.49,4.79-7.84s3.92-1.3,7-1.74c2.44-.34,9.14-.72,12.19-.87l11.32,1.74,1.74,14.8,1.74,5.22c2.44-2.08,2.17.87,1.74,2.62-.15,1.74-.52,5.91-.87,8.7a5.33,5.33,0,0,1-3.92,4.35A38.61,38.61,0,0,1,51,55.49c-1.75,3.83-6,6.23-7.84,7a16.16,16.16,0,0,1-7.83,2.61c-3.92,0-2.18,0-9.14-3.48-5.57-2.79-7.84-8.71-8.27-11.32-4.53-1-4.79-7.4-4.35-10.44l-.87-4.36C13.41,32.68,15.33,34,16.2,35Z"/><path class="cls-2" d="M16.46,37s.33,4.46.42,5.49"/><path class="cls-3" d="M14,36.1a11,11,0,0,1,2.74,4.81"/><path class="cls-3" d="M15.39,40.38s-.93,2.72,1.07,4.11"/><path class="cls-2" d="M17.84,50.08l-.42-2.91"/><path class="cls-2" d="M28.45,52.13s7.42.23,14,0"/><path class="cls-4" d="M30.74,30.05s-5.24-1.75-8.7.78L21,33.05s5.34-3.61,10.17-1.71Z"/><path class="cls-4" d="M38.93,30.49a19.06,19.06,0,0,1,9-.53l1.91,1.95s-5.42-2-10.24-.08Z"/><path class="cls-2" d="M22,36.1s4.91-4.27,8.27-.5"/><path class="cls-4" d="M26.71,36.39a1.06,1.06,0,1,0-1.06-1.06A1.05,1.05,0,0,0,26.71,36.39Z"/><path class="cls-4" d="M44.21,36.39a1.06,1.06,0,1,0,0-2.12,1.06,1.06,0,1,0,0,2.12Z"/><path class="cls-2" d="M48.88,36.1s-4.91-4.27-8.27-.5"/><path class="cls-2" d="M49.28,15.46C52.9,18.91,54.47,37,54.47,37a6.67,6.67,0,0,1,2.07-2.79c1.5-1.12,2.08,1.53,1.36,4s.26,6.09-1.56,9.35-3.2,2.51-3.2,2.51-1.07,6.8-6.59,10.24S39.62,65,35.46,65s-5.53-1.21-11-4.65-6.57-10.24-6.57-10.24-1.44.75-3.21-2.51-.84-6.84-1.56-9.35-.15-5.17,1.35-4.05A6.52,6.52,0,0,1,16.55,37s1.38-15.46,5-18.9S33,13.22,49.28,15.46Z"/><path class="cls-2" d="M54.47,37s-.33,4.46-.43,5.49"/><path class="cls-3" d="M56.9,36.1a11,11,0,0,0-2.74,4.81"/><path class="cls-3" d="M55.53,40.38s.94,2.72-1.07,4.11"/><path class="cls-2" d="M53.08,50.08l.42-2.91"/><path class="cls-2" d="M39.16,45.27a5.71,5.71,0,0,0-2.14.9c-1.07.75-1.07.7-1.56.7s-.49,0-1.56-.7a5.71,5.71,0,0,0-2.14-.9"/><path class="cls-3" d="M32.11,41.61,34,32"/><path d="M48.88,15.4S31.07,12.53,24,18.67c0,0,3.49-4.42,11.47-6.41"/><path class="cls-2" d="M48.88,15.4S31.07,12.53,24,18.67c0,0,3.49-4.42,11.47-6.41"/><path class="cls-4" d="M14.37,34.17A6.54,6.54,0,0,1,16.51,37s1.07-15.85,5-18.9C29,12.29,33,13.22,49.3,15.45,52.92,18.91,54.49,37,54.49,37a6.46,6.46,0,0,1,.4-.84c11.66-20.3-5-23.83-5-23.83C42,.1,25.19,6,18.71,10.61S11.29,19.37,11,24.11s2.34,10,2.34,10C13.58,33.84,13.94,33.84,14.37,34.17Z"/><path class="cls-2" d="M31.91,30.13l-.76,1.22"/><path class="cls-2" d="M49.84,12.29a14.39,14.39,0,0,0-5.46-7.35"/><path class="cls-4" d="M32.8,45.53c0-.11-.27-.3-.68-.41s-.77-.12-.8,0,.27.3.68.42S32.77,45.64,32.8,45.53Z"/><path class="cls-4" d="M38.77,45.81c.41-.12.72-.31.69-.42s-.39-.11-.8,0-.72.3-.69.42S38.36,45.92,38.77,45.81Z"/></svg>