<svg width="104" height="104" viewBox="0 0 104 104" fill="none" xmlns="http://www.w3.org/2000/svg">
<circle cx="52" cy="52" r="50" fill="white" stroke="black" stroke-width="3"/>
<path d="M50.8438 76C50.8437 76.8284 51.5153 77.5 52.3437 77.5C53.1722 77.5 53.8437 76.8284 53.8438 76L50.8438 76ZM53.8438 27.5798C53.8438 26.7513 53.1722 26.0798 52.3438 26.0798C51.5153 26.0798 50.8438 26.7513 50.8438 27.5798L53.8438 27.5798ZM70.9636 47.1856C71.5625 47.7579 72.512 47.7364 73.0844 47.1376C73.6568 46.5387 73.6353 45.5892 73.0364 45.0168L70.9636 47.1856ZM52.3438 27.3152L53.3801 26.2308C52.8003 25.6766 51.8872 25.6766 51.3074 26.2308L52.3438 27.3152ZM31.6511 45.0168C31.0522 45.5892 31.0307 46.5387 31.6031 47.1376C32.1755 47.7364 33.125 47.7579 33.7239 47.1856L31.6511 45.0168ZM53.8438 76L53.8438 27.5798L50.8438 27.5798L50.8438 76L53.8438 76ZM73.0364 45.0168L53.3801 26.2308L51.3074 28.3996L70.9636 47.1856L73.0364 45.0168ZM51.3074 26.2308L31.6511 45.0168L33.7239 47.1856L53.3801 28.3996L51.3074 26.2308Z" fill="black"/>
</svg>
