<svg width="40" height="40" viewBox="0 0 40 40" fill="none" xmlns="http://www.w3.org/2000/svg">
<path d="M22.5 3C22.5 1.61929 21.3807 0.5 20 0.5C18.6193 0.5 17.5 1.61929 17.5 3H22.5ZM17.5 27.2101C17.5 28.5908 18.6193 29.7101 20 29.7101C21.3807 29.7101 22.5 28.5908 22.5 27.2101H17.5ZM11.8992 16.1421C10.901 15.1881 9.31852 15.224 8.36455 16.2221C7.41059 17.2203 7.44641 18.8028 8.44457 19.7567L11.8992 16.1421ZM20 27.3424L18.2727 29.1497C19.239 30.0733 20.761 30.0733 21.7273 29.1497L20 27.3424ZM31.5554 19.7567C32.5536 18.8028 32.5894 17.2203 31.6354 16.2221C30.6815 15.224 29.099 15.1881 28.1008 16.1421L31.5554 19.7567ZM5.5 27.3424C5.5 25.9617 4.38071 24.8424 3 24.8424C1.61929 24.8424 0.5 25.9617 0.5 27.3424H5.5ZM3 37H0.5C0.5 38.3807 1.61929 39.5 3 39.5L3 37ZM37 37V39.5C38.3807 39.5 39.5 38.3807 39.5 37H37ZM39.5 27.8716C39.5 26.4909 38.3807 25.3716 37 25.3716C35.6193 25.3716 34.5 26.4909 34.5 27.8716H39.5ZM17.5 3V27.2101H22.5V3H17.5ZM8.44457 19.7567L18.2727 29.1497L21.7273 25.5351L11.8992 16.1421L8.44457 19.7567ZM21.7273 29.1497L31.5554 19.7567L28.1008 16.1421L18.2727 25.5351L21.7273 29.1497ZM0.5 27.3424V37H5.5V27.3424H0.5ZM3 39.5H37V34.5H3V39.5ZM39.5 37V27.8716H34.5V37H39.5Z" fill="black"/>
</svg>
