<svg id="Layer_1" data-name="Layer 1" xmlns="http://www.w3.org/2000/svg" viewBox="0 0 70 70"><defs><style>.cls-1{fill:#fff;}.cls-2,.cls-3{fill:none;}.cls-2,.cls-3,.cls-4,.cls-5{stroke:#000;stroke-linecap:round;stroke-linejoin:round;}.cls-2,.cls-5{stroke-width:0.75px;}.cls-3{stroke-width:0.5px;}.cls-4{stroke-width:0.25px;}</style></defs><path class="cls-1" d="M12,29.69l.87-14.8c4.36-1,13.24-3.13,13.93-3.48s11.9-2.18,17.41-3.05l10.88,7,2.18,17.41c3.92-3.05,4.79,0,4.79,2.61,0,2.09-1.75,5.51-2.62,7l-1.74,3.92c0,2.78-2,2.61-3,2.17a37.5,37.5,0,0,1-1.74,8.27c-1,2.79-5.08,4.35-7,4.79l-6.09,2.61a23,23,0,0,1-5.22.87,23.05,23.05,0,0,1-5.23-.87l-5.22-2.61-3.92-1.31-2.61-2.61-.87-2.61-1.3-6.53C13,49.45,12.13,47.1,12,45.79l-.43-1.3a26.26,26.26,0,0,1-3.48-9.58c-.7-4.53,2.32-3.92,3.91-3Z"/><path class="cls-2" d="M35,65.12c-6,0-6.33-2.4-12.83-4.09A8.43,8.43,0,0,1,17,56a73.73,73.73,0,0,1-1.42-7.66c-2,1.15-2.85,0-3.2-1s.43-.62-1.61-4.54S7.25,34.39,8.59,32.34s3.91.27,3.91.27S13.66,22.55,16.15,20a20.11,20.11,0,0,0,8.32.09,20.06,20.06,0,0,0,7.63-3.3c7.48-5.52,8.9-6.86,13.44-6.68,0,0,4.65,13.3,9.71,17.37l.54,8.65s.43-2.63,1.77-3.49c0,0,2.59-2.31,3.93-.27s-.1,6.51-2.14,10.42-1.25,3.57-1.6,4.54-1.25,2.14-3.21,1A71.22,71.22,0,0,1,53.11,56,8.44,8.44,0,0,1,47.86,61C41.35,62.72,41,65.12,35,65.12Z"/><path class="cls-2" d="M15.52,48.29l-.62-5.16"/><path class="cls-3" d="M31.17,43.7S28,46.48,31.17,48"/><path class="cls-3" d="M30.52,44.45s-2.14,2.53-3.21,4-4.79,1.86-6.64,0"/><path class="cls-3" d="M39.56,44.45s2.13,2.53,3.2,4,4.79,1.86,6.64,0"/><path class="cls-2" d="M31.58,47.11a11.54,11.54,0,0,1,1.57.89,3.17,3.17,0,0,0,1.88.5"/><path class="cls-3" d="M38.89,43.7s3.21,2.78,0,4.28"/><path class="cls-2" d="M38.47,47.11a10.86,10.86,0,0,0-1.56.89,3.18,3.18,0,0,1-1.87.5"/><path class="cls-2" d="M30,54.24s3.62,1,10.18,0"/><path class="cls-2" d="M21.85,36.4s4.49-1.42,7.77,0"/><path class="cls-4" d="M27.82,36.4a1.07,1.07,0,1,1-2.13,0c0-.57.47-.62,1.06-.62S27.82,35.83,27.82,36.4Z"/><path class="cls-3" d="M28.86,35.15a6.14,6.14,0,0,0-3.05-1.06,6.07,6.07,0,0,0-3.16.63"/><path class="cls-3" d="M28.86,38.89a4.23,4.23,0,0,1-1.72,1.66,4.18,4.18,0,0,1-2.33.48"/><path class="cls-2" d="M12.86,30.11a45.85,45.85,0,0,0,.35,6.73"/><path class="cls-3" d="M13,35.91s-2.37-4.27-3.64-2.43"/><path class="cls-3" d="M11.61,36.54a5.33,5.33,0,0,0,1.6,5.78"/><path class="cls-2" d="M54.53,48.29l.63-5.16"/><path class="cls-3" d="M55.79,37.37s2.53-4.94,4.45-3.33"/><path class="cls-3" d="M58.45,36.54a5.33,5.33,0,0,1-1.6,5.78"/><path class="cls-5" d="M27.25,29.94l-3.8-.59L20,31A18.45,18.45,0,0,1,27.25,29.94Z"/><path class="cls-2" d="M48.21,36.4s-4.49-1.42-7.77,0"/><path class="cls-4" d="M42.27,36.4a1.07,1.07,0,0,0,.31.76,1.09,1.09,0,0,0,1.52,0,1.07,1.07,0,0,0,.31-.76c0-.57-.47-.62-1.07-.62S42.27,35.83,42.27,36.4Z"/><path class="cls-3" d="M41.2,35.15a6.18,6.18,0,0,1,3-1.06,6.07,6.07,0,0,1,3.16.63"/><path class="cls-3" d="M41.2,38.89a4.29,4.29,0,0,0,1.72,1.66,4.18,4.18,0,0,0,2.33.48"/><path class="cls-5" d="M42.82,29.94l3.79-.59L50.11,31A18.51,18.51,0,0,0,42.82,29.94Z"/><path class="cls-3" d="M33.21,33.71l-1,6.26"/><path class="cls-2" d="M55.79,36.12V38.2"/><path class="cls-5" d="M12.5,33S13.66,24,16.15,21.66c0,0,8.47,2.08,16-2.88s8.9-6.15,13.44-6c0,0,4.65,11.92,9.71,15.59l.54,7.77A6.22,6.22,0,0,1,57,33.43v0c6.5-22-8.82-23.39-8.82-23.39s1.9-6.59-14.54-4.8C15.15,7.21,9,14.45,9.4,21.66a42.51,42.51,0,0,0,1.94,10.18A2.65,2.65,0,0,1,12.5,33Z"/><path class="cls-3" d="M20,36.84H17.84"/><path class="cls-3" d="M50.11,36.84h2.11"/></svg>