<svg id="Layer_1" data-name="Layer 1" xmlns="http://www.w3.org/2000/svg" viewBox="0 0 70 70"><defs><style>.cls-1{fill:#fff;}.cls-2,.cls-3,.cls-5{fill:none;}.cls-2,.cls-3,.cls-4{stroke:#000;}.cls-2,.cls-3,.cls-4,.cls-5{stroke-linecap:round;stroke-linejoin:round;}.cls-2,.cls-4{stroke-width:0.75px;}.cls-3,.cls-5{stroke-width:0.5px;}.cls-5{stroke:#fff;}</style></defs><path class="cls-1" d="M17.58,32c.35-.35,3.05-7.4,4.35-10.88.87-1,3.05-3.48,4.79-5.22A28.5,28.5,0,0,1,31.94,12l10,2.61,8.7,7,4.79,19.59c2.43,0,.43,3.77-.87,5.66-1,3.48-2.47,3.77-3,3.48C46,62.81,38.76,65.66,35.86,65.51c-8.35-.69-13.64-10.44-15.23-15.23a2,2,0,0,1-2.18-.87l-1.74-3.92c-2.09-3.13-1.16-4.21-.43-4.35C16.57,38.24,17.23,32.35,17.58,32Z"/><path class="cls-2" d="M17.67,42.18l1.19,3.63"/><path class="cls-2" d="M33.92,47.61c0-.08-.24-.19-.57-.24s-.6,0-.61,0,.24.2.56.25S33.9,47.69,33.92,47.61Z"/><path class="cls-2" d="M33.35,47.43a2.49,2.49,0,0,1,1.07.55,2.37,2.37,0,0,0,1.44.56"/><path class="cls-2" d="M38.48,47.73c.33,0,.58-.16.57-.24s-.29-.11-.62-.05-.57.16-.56.24S38.16,47.79,38.48,47.73Z"/><path class="cls-2" d="M38.49,47.43a2.44,2.44,0,0,0-1.07.55,2.42,2.42,0,0,1-1.45.56"/><path class="cls-3" d="M30.86,47.43s-.77-.89.72-2.44"/><path class="cls-3" d="M29.94,54.08h12"/><path d="M30.75,54.08s3.35,2.14,5.16,2.14a8.81,8.81,0,0,0,5.18-2.14"/><path class="cls-3" d="M30.75,54.08s3.35,2.14,5.16,2.14a8.81,8.81,0,0,0,5.18-2.14"/><path d="M41,54.08c-1.38,0-3.09-2.45-5.1-1.23-2-1.22-3.57,1.23-5.08,1.23"/><path class="cls-3" d="M41,54.08c-1.38,0-3.09-2.45-5.1-1.23-2-1.22-3.57,1.23-5.08,1.23"/><path class="cls-2" d="M23.5,36.8s5.16-3.09,7.63.55"/><path class="cls-4" d="M28,37.79a1,1,0,1,0-1-1A1,1,0,0,0,28,37.79Z"/><path class="cls-2" d="M48.34,36.8s-5.16-3.09-7.63.55"/><path class="cls-4" d="M43.83,37.79a1,1,0,1,0,0-1.95,1,1,0,0,0,0,1.95Z"/><path class="cls-4" d="M21.54,33.08s3.32-2.59,10.41,0l-.82-1.33s-5.05-.8-5.55-.8A29.37,29.37,0,0,0,21.54,33.08Z"/><path class="cls-2" d="M35.91,17.45c19.24,0,18.25,24.72,18.25,24.72s1.36-1.18,2.13-.63.28,2.08-1.07,3.73-1.49,5.9-3.67,5a33.6,33.6,0,0,1-6.73,10.68c-4.55,4.63-7.85,4.73-8.89,4.73s-4.27-.1-8.87-4.73a33.6,33.6,0,0,1-6.73-10.68c-2.14.91-2.36-3.36-3.67-5s-1.78-3.21-1.07-3.73,2.13.63,2.13.63S16.71,17.45,35.91,17.45Z"/><path class="cls-2" d="M54.16,42.18,53,45.81"/><path class="cls-3" d="M41,47.43s.77-.89-.73-2.44"/><path class="cls-4" d="M50.3,33.08s-3.33-2.59-10.41,0l.82-1.33s5-.8,5.55-.8A29.37,29.37,0,0,1,50.3,33.08Z"/><path class="cls-4" d="M18,43.15c.21-6.75,2.9-25.7,17.92-25.7,16.6,0,17.82,20.42,17.93,25.44L56,41.07c1-1.17,2.87-8,.61-19.5C54.2,9.41,41.89,8.16,41.89,8.16c-11.6-8.45-24-1.61-27.28,7.92C8.16,35.19,17.57,43,18,43.15Z"/><path class="cls-5" d="M21.54,29.58C35.11,1.07,40.43,16.85,40.43,16.85"/><path class="cls-4" d="M18.86,52.81A.87.87,0,1,0,18,52,.87.87,0,0,0,18.86,52.81Z"/><path class="cls-4" d="M53,52.81a.87.87,0,1,0-.87-.86A.87.87,0,0,0,53,52.81Z"/><path class="cls-3" d="M16.36,42.89A3.79,3.79,0,0,1,18.59,45"/><path class="cls-3" d="M55.48,42.89A3.72,3.72,0,0,0,53.25,45"/></svg>