<svg id="Layer_1" data-name="Layer 1" xmlns="http://www.w3.org/2000/svg" viewBox="0 0 70 70"><defs><style>.cls-1{fill:#fff;}.cls-2,.cls-3{fill:none;}.cls-2,.cls-3,.cls-4{stroke:#000;stroke-linecap:round;stroke-linejoin:round;}.cls-2,.cls-4{stroke-width:0.75px;}.cls-3{stroke-width:0.5px;}</style></defs><path class="cls-1" d="M17.92,12.8c-2.44,3.83-3.05,12-3.05,15.67v4.35c-3.91-2.61-3.91,3.91-3,5.66A50.85,50.85,0,0,1,14,45c0,2.79,1.16,3.78,1.75,3.92a28.09,28.09,0,0,0,1.3,5.66c1.31,4.35,6.09,6.53,12.19,9.14a13.26,13.26,0,0,0,10.88,0l7.4-3.48c5.57-2.44,6.67-8.56,6.53-11.32,1.39,0,1.74-1.45,1.74-2.18l1.74-6.09c.58-1.3,1.56-4.52.87-7s-2.9-1-3.92,0v-.87c-.14-3.34-.87-11.23-2.61-16.11s-4.5-6.38-5.66-6.52c-.43-3-3.48-4.36-7.4-4.79S28.8,5,23.58,7.14C19.4,8.88,18.07,11.64,17.92,12.8Z"/><path class="cls-2" d="M15.82,34.29a28.64,28.64,0,0,0,0,4.9"/><path class="cls-3" d="M15.71,38s-1.32-4.36-3.21-3.74"/><path class="cls-3" d="M14.12,37.5s-.24,3.65,1.58,5.43"/><path class="cls-2" d="M15.9,48.82V46.68"/><path class="cls-4" d="M32.84,42.67a.58.58,0,0,0,.61-.54.61.61,0,0,0-1.22,0A.58.58,0,0,0,32.84,42.67Z"/><path class="cls-4" d="M37.13,42.67a.57.57,0,0,0,.6-.54.61.61,0,1,0-.6.54Z"/><path class="cls-2" d="M33.25,36.76c-1.38.28-1.64,2.14-2.05,2.89a2.83,2.83,0,0,0-1.54,2.92c.08,1.41,2,1.37,2,1.37"/><path class="cls-2" d="M36.78,36.76c1.34.28,1.56,2.14,2,2.89A2.84,2.84,0,0,1,40,40.86a2.89,2.89,0,0,1,.31,1.71c-.09,1.41-2,1.37-2,1.37"/><path class="cls-2" d="M40.83,52.55a22.31,22.31,0,0,0-11.75,0"/><path class="cls-2" d="M14.9,32.86s-.79-14.33,3.46-20.92c0,0,1.07-5.25,12.66-6.59S46.63,9,46.27,10c0,0,4.17,1.07,6.42,9.62a62.58,62.58,0,0,1,1.93,13.89"/><path class="cls-3" d="M32.51,12.3S31,4.55,22.3,8.12"/><path class="cls-2" d="M51,23.79a17.73,17.73,0,0,1,3.2,10.5s1.25-2.4,3-1.95,1.77,4.36.62,7.11a27.82,27.82,0,0,0-1.87,7c-.19,1.5-.45,2.49-1.87,2.31A12.91,12.91,0,0,1,46.26,61.1c-7.73,3.38-7.87,3.74-11.24,3.74s-3.63-.09-11.24-3.74c-8.85-4.23-7.85-12.29-7.85-12.29-1.42.18-1.69-.81-1.87-2.31a27,27,0,0,0-1.87-7C11,36.7,11,32.78,12.82,32.34s3,1.95,3,1.95c.26-3.82,2.58-9.61,2.58-9.61"/><path class="cls-2" d="M54.15,34.29a28.64,28.64,0,0,1,0,4.9"/><path class="cls-3" d="M54.27,38s1.31-4.36,3.2-3.74"/><path class="cls-3" d="M55.86,37.5s.22,3.65-1.58,5.43"/><path class="cls-2" d="M54.06,48.82V46.68"/><path class="cls-3" d="M29.91,11.43C28.69,9.49,24.23,6,19.72,9.73"/><path class="cls-3" d="M25.12,11.77s-5.4-3.68-8.81,4.71"/><path class="cls-3" d="M19.2,14.3s-1.65.49-3.6,5.83"/><path class="cls-3" d="M18.36,17.48s-1.84-.31-3.46,7.1"/><path class="cls-3" d="M17.77,20.13a15,15,0,0,0-2.93,8"/><path class="cls-3" d="M17.77,23.25A20.19,20.19,0,0,0,14.9,31.8"/><path class="cls-3" d="M35,12.3a7.71,7.71,0,0,0-6.85-6.49"/><path class="cls-3" d="M46.27,12.88S50,12.81,52.52,19"/><path class="cls-3" d="M49,16.48s2.94,1.14,4.41,6"/><path class="cls-3" d="M50.87,20.49s2,1.49,3.31,6.8"/><path class="cls-3" d="M43.77,10.58s.83-3.67-5-5.14"/><path class="cls-3" d="M40.83,10.58s0-4.4-7.34-5.41"/><path class="cls-3" d="M37.94,11.94S37.45,7.06,31,5.35"/><path class="cls-2" d="M21.75,32.86s3.51-2.6,8.9-.43"/><path d="M27.16,31.77a.67.67,0,0,1-.24.46.73.73,0,0,1-.49.19.75.75,0,0,1-.49-.19.71.71,0,0,1-.24-.46"/><path class="cls-2" d="M27.16,31.77a.67.67,0,0,1-.24.46.73.73,0,0,1-.49.19.75.75,0,0,1-.49-.19.71.71,0,0,1-.24-.46"/><path class="cls-3" d="M29.14,28.08S25.87,24,22.28,27"/><path class="cls-3" d="M25.38,27s-1.6-.76-4.57,1.88"/><path class="cls-3" d="M40.83,28.08S44.1,24,47.68,27"/><path class="cls-3" d="M44.6,27s1.59-.76,4.57,1.88"/><path class="cls-3" d="M30.37,34.38a4.62,4.62,0,0,1-1.15,1.55,4.73,4.73,0,0,1-1.67,1,4.8,4.8,0,0,1-1.92.21,4.9,4.9,0,0,1-1.84-.58"/><path class="cls-3" d="M24.1,33.19h4.19"/><path class="cls-2" d="M48.23,32.86s-3.52-2.6-8.91-.43"/><path d="M42.79,31.77a.67.67,0,0,0,.24.46.66.66,0,0,0,.5.16.6.6,0,0,0,.26,0,.76.76,0,0,0,.23-.13.62.62,0,0,0,.16-.2.59.59,0,0,0,.07-.26"/><path class="cls-2" d="M42.79,31.77a.67.67,0,0,0,.24.46.66.66,0,0,0,.5.16.6.6,0,0,0,.26,0,.76.76,0,0,0,.23-.13.62.62,0,0,0,.16-.2.59.59,0,0,0,.07-.26"/><path class="cls-3" d="M39.59,34.38s2.53,4.36,7.48,1.39"/><path class="cls-3" d="M45.87,33.19H41.68"/><path class="cls-3" d="M31.82,53.87a6.57,6.57,0,0,0,6.32,0"/><path class="cls-3" d="M27.42,47.3A25,25,0,0,1,30,41.09"/><path class="cls-3" d="M42.54,47.3A24.41,24.41,0,0,0,40,41.09"/><path class="cls-3" d="M30,30.47a2.64,2.64,0,0,1,.55.91,2.5,2.5,0,0,1,.11,1.05"/><path class="cls-3" d="M40.32,30.47a3.37,3.37,0,0,0-1,2"/></svg>