<svg id="Layer_1" data-name="Layer 1" xmlns="http://www.w3.org/2000/svg" viewBox="0 0 70 70"><defs><style>.cls-1{fill:#fff;}.cls-2,.cls-3{fill:none;}.cls-2,.cls-3,.cls-4{stroke:#000;stroke-linecap:round;stroke-linejoin:round;}.cls-2,.cls-4{stroke-width:0.75px;}.cls-3{stroke-width:0.5px;}</style></defs><path class="cls-1" d="M8.49,38.7c-.7-3.14-.29-4.5,0-4.79.7-1.74,3.19-1,4.35-.44a25.48,25.48,0,0,1-.87-10,34.74,34.74,0,0,1,3.48-10c1.4-2.78,4.65-4.93,6.1-5.65C21.9,6.06,24,5.62,25,5.62,32,2.14,38.38,3.3,40.7,4.31c5.57-.69,7.54,4.07,7.83,6.53C59,8.75,60.43,21,59.85,27.38l-.44,5.22c3.48-.34,2.61,4.21,1.74,6.53-.72,1.89-2.43,6.36-3.48,9.14s-2.75,3.19-3.48,3a30.35,30.35,0,0,1-1.31,6.53c-2.61,5.66-12.62,8.27-17,8.7s-8.27-.43-14.36-4.35a12.66,12.66,0,0,1-5.66-10.88c-2.09,1-4.06-3.63-4.79-6.09A21.63,21.63,0,0,1,8.49,38.7Z"/><path class="cls-2" d="M35,66.71s-5.27.46-12.58-3.83c-7.48-4.4-6.54-11.55-6.54-11.55-2.86.63-3.5-3.67-5.25-7.26S6.17,33,10,32.68s5.89,3.66,5.89,3.66,1.28-8.28,4.79-12.1"/><path class="cls-2" d="M15.88,36.34s-.55,4.07-.71,5.67"/><path class="cls-3" d="M15.5,39.27s-2.8-5.55-5.27-4.43"/><path class="cls-3" d="M13.41,38.58s-2,4.54,1.36,5.9"/><path class="cls-2" d="M35,66.71s5.5.33,12.58-3.83c7.48-4.41,6.53-11.55,6.53-11.55,2.86.63,3.5-3.67,5.26-7.26S63.82,33,60,32.68s-5.9,3.66-5.9,3.66,1.51-15.75-3.21-20.55"/><path class="cls-2" d="M54.11,36.34s.56,4.07.72,5.67"/><path class="cls-3" d="M54.49,39.27s2.8-5.55,5.27-4.43"/><path class="cls-3" d="M56.58,38.58s2,4.54-1.36,5.9"/><path class="cls-2" d="M20.87,35.07s8.05-4.45,10.6,0"/><path class="cls-2" d="M31.46,29.78,25,28.87l-3.36,1.51"/><path class="cls-4" d="M27.94,34a1.14,1.14,0,0,1-2.26,0c0-.59.91-.76,1.53-.76S27.94,33.42,27.94,34Z"/><path class="cls-4" d="M33.06,47.21c.27,0,.49-.15.49-.34s-.22-.34-.49-.34-.5.15-.5.34S32.78,47.21,33.06,47.21Z"/><path class="cls-4" d="M36.94,47.21c.27,0,.49-.15.49-.34s-.22-.34-.49-.34-.5.15-.5.34S36.66,47.21,36.94,47.21Z"/><path d="M30.67,36s-3.82,1-5.65.6Z"/><path class="cls-3" d="M30.67,36s-3.82,1-5.65.6"/><path class="cls-3" d="M31,36.7s-2.71,5-7.56,2.13"/><path class="cls-2" d="M49.12,35.07s-8-4.45-10.59,0"/><path class="cls-2" d="M38.53,29.78,45,28.87l3.36,1.51"/><path class="cls-4" d="M42.07,34a1.11,1.11,0,0,0,1.12,1.13,1.11,1.11,0,0,0,.79-.33,1.14,1.14,0,0,0,.33-.8c0-.59-.9-.76-1.52-.76S42.07,33.42,42.07,34Z"/><path d="M39.32,36s3.82,1,5.66.6Z"/><path class="cls-3" d="M39.32,36s3.82,1,5.66.6"/><path class="cls-3" d="M39,36.7s2.7,5,7.57,2.13"/><path class="cls-3" d="M31.21,46.93s-2.08-.47,0-3.33"/><path class="cls-3" d="M33.64,32.05a57.18,57.18,0,0,1-1.4,7.89"/><path class="cls-2" d="M28.14,53.8s3.33-.22,13.71,0"/><path class="cls-3" d="M26.63,55.09l1.69-1.77"/><path class="cls-3" d="M43.36,55.09l-1.69-1.77"/><path class="cls-2" d="M12.83,33.28s-3-4.58,1-16.69c3-9.21,10.54-9.4,10.54-9.4"/><path class="cls-2" d="M46.64,12A10.28,10.28,0,0,0,37,3.6c-8.55-.82-11.09,3.21-17.43,2.14"/><path class="cls-3" d="M43.76,12s-2.51-9.21-12.64-8.2"/><path class="cls-3" d="M40.26,12s-3.37-8.63-10.53-7.9"/><path class="cls-3" d="M37,12s-2.55-7.89-9.31-5.9"/><path class="cls-3" d="M34.23,12S31,6.4,25.93,7.83"/><path class="cls-3" d="M31.58,12s-6.14-5.74-14.66-1"/><path class="cls-3" d="M25.93,11S17.15,10,13.25,18.37"/><path class="cls-3" d="M22.54,13.57A14.63,14.63,0,0,0,12.11,23.4"/><path class="cls-3" d="M21.14,16.59a15,15,0,0,0-9.39,11"/><path class="cls-3" d="M19.59,20.24s-6.33,3.87-7.48,11"/><path class="cls-3" d="M19.32,23.4s-5.14,5.84-5.52,10.51"/><path class="cls-2" d="M48.47,13.57s2.32-9-8.21-9.22"/><path class="cls-2" d="M48.69,11S62.94,6.36,59.21,32.68"/><path class="cls-3" d="M49.62,14.1s5.43-5.63,10.16,9.25"/><path class="cls-3" d="M50.94,15.79s4.61-2.93,8.89,10.87"/><path class="cls-3" d="M53.29,20.57s2.9-1.78,6.25,9.46"/><path class="cls-3" d="M59.24,32.68S57.62,25,54.1,25"/><path class="cls-3" d="M57.69,33s-1.2-3.79-3.38-4.18"/><path class="cls-3" d="M54.31,30.94a13.69,13.69,0,0,1,1.88,3"/><path class="cls-2" d="M15.88,51.33V48.66"/><path class="cls-2" d="M54.11,51.33V48.66"/><path class="cls-3" d="M31,43.93l-3.89,4.73"/><path class="cls-2" d="M33.27,46.56a3.49,3.49,0,0,0,3.34,0"/><path class="cls-3" d="M38.8,46.93s2.07-.47,0-3.33"/><path class="cls-3" d="M39.11,44.07l3.81,4.59"/><path class="cls-3" d="M11.14,37.39l.76,1.07"/><path class="cls-3" d="M58.85,37.39l-.75,1.07"/></svg>